<!DOCTYPE svg PUBLIC "-//W3C//DTD SVG 1.1//EN" "http://www.w3.org/Graphics/SVG/1.1/DTD/svg11.dtd">
<!-- Uploaded to: SVG Repo, www.svgrepo.com, Transformed by: SVG Repo Mixer Tools -->
<svg fill="#27ae61" width="800px" height="800px" viewBox="0 0 64 64" xmlns="http://www.w3.org/2000/svg">
<g id="SVGRepo_bgCarrier" stroke-width="0"/>
<g id="SVGRepo_tracerCarrier" stroke-linecap="round" stroke-linejoin="round"/>
<g id="SVGRepo_iconCarrier"> <title/> <g data-name="Layer 2" id="Layer_2"> <path d="M51,5H41.21A2.93,2.93,0,0,0,39,4H34.21a2.94,2.94,0,0,0-4.42,0H25a2.93,2.93,0,0,0-2.21,1H13a2,2,0,0,0-2,2V59a2,2,0,0,0,2,2H51a2,2,0,0,0,2-2V7A2,2,0,0,0,51,5Zm-19.87.5A1,1,0,0,1,32,5a1,1,0,0,1,.87.51A1,1,0,0,1,33,6a1,1,0,0,1-2,0A1.09,1.09,0,0,1,31.13,5.5ZM32,9a3,3,0,0,0,3-3h4a1,1,0,0,1,.87.51A1,1,0,0,1,40,7V9a1,1,0,0,1-1,1H25a1,1,0,0,1-1-1V7a1.09,1.09,0,0,1,.13-.5A1,1,0,0,1,25,6h4A3,3,0,0,0,32,9ZM51,59H13V7h9V9a3,3,0,0,0,3,3H39a3,3,0,0,0,3-3V7h9Z"/> <path d="M16,56H48V15H16Zm2-39H46V54H18Z"/> <rect height="2" width="18" x="26" y="22"/> <rect height="2" width="4" x="20" y="22"/> <rect height="2" width="18" x="26" y="27"/> <rect height="2" width="4" x="20" y="27"/> <rect height="2" width="18" x="26" y="32"/> <rect height="2" width="4" x="20" y="32"/> <rect height="2" width="18" x="26" y="37"/> <rect height="2" width="4" x="20" y="37"/> <rect height="2" width="18" x="26" y="42"/> <rect height="2" width="4" x="20" y="42"/> <rect height="2" width="18" x="26" y="47"/> <rect height="2" width="4" x="20" y="47"/> </g> </g>
</svg>